<?xml version="1.0" encoding="UTF-8" standalone="no"?>
<svg
   xmlns:dc="http://purl.org/dc/elements/1.1/"
   xmlns:cc="http://creativecommons.org/ns#"
   xmlns:rdf="http://www.w3.org/1999/02/22-rdf-syntax-ns#"
   xmlns:svg="http://www.w3.org/2000/svg"
   xmlns="http://www.w3.org/2000/svg"
   xmlns:sodipodi="http://sodipodi.sourceforge.net/DTD/sodipodi-0.dtd"
   xmlns:inkscape="http://www.inkscape.org/namespaces/inkscape"
   inkscape:version="1.0 (4035a4fb49, 2020-05-01)"
   sodipodi:docname="apple.svg"
   height="512"
   width="419.95499"
   xml:space="preserve"
   viewBox="0 0 419.95499 512"
   y="0px"
   x="0px"
   id="Capa_1"
   version="1.1"><metadata
   id="metadata3564"><rdf:RDF><cc:Work
       rdf:about=""><dc:format>image/svg+xml</dc:format><dc:type
         rdf:resource="http://purl.org/dc/dcmitype/StillImage" /><dc:title></dc:title></cc:Work></rdf:RDF></metadata><defs
   id="defs3562" /><sodipodi:namedview
   inkscape:current-layer="Capa_1"
   inkscape:window-maximized="1"
   inkscape:window-y="-8"
   inkscape:window-x="-8"
   inkscape:cy="207.81176"
   inkscape:cx="209.978"
   inkscape:zoom="1.6601562"
   fit-margin-bottom="0"
   fit-margin-right="0"
   fit-margin-left="0"
   fit-margin-top="0"
   showgrid="false"
   id="namedview3560"
   inkscape:window-height="1017"
   inkscape:window-width="1920"
   inkscape:pageshadow="2"
   inkscape:pageopacity="0"
   guidetolerance="10"
   gridtolerance="10"
   objecttolerance="10"
   borderopacity="1"
   bordercolor="#666666"
   pagecolor="#ffffff" />
<g
   transform="translate(-46.022)"
   style="fill:#ffffff;fill-opacity:1"
   id="g3557">
	<path
   style="fill:#ffffff;fill-opacity:1"
   id="path3553"
   d="M 185.255,512 C 109.054,511.561 46.022,356.009 46.022,276.79 c 0,-129.404 97.075,-157.734 134.487,-157.734 16.86,0 34.863,6.621 50.742,12.48 11.104,4.087 22.588,8.306 28.975,8.306 3.823,0 12.832,-3.589 20.786,-6.738 16.963,-6.753 38.071,-15.146 62.651,-15.146 0.044,0 0.103,0 0.146,0 18.354,0 74.004,4.028 107.461,54.272 l 7.837,11.777 -11.279,8.511 c -16.113,12.158 -45.513,34.336 -45.513,78.267 0,52.031 33.296,72.041 49.292,81.665 7.061,4.248 14.37,8.628 14.37,18.208 0,6.255 -49.922,140.566 -122.417,140.566 -17.739,0 -30.278,-5.332 -41.338,-10.034 -11.191,-4.761 -20.845,-8.862 -36.797,-8.862 -8.086,0 -18.311,3.823 -29.136,7.881 C 221.496,505.73 204.752,512 185.753,512 Z" />
	<path
   style="fill:#ffffff;fill-opacity:1"
   id="path3555"
   d="M 351.343,0 C 353.231,68.076 304.546,115.304 255.918,112.342 247.905,58.015 304.54,0 351.343,0 Z" />
</g>















</svg>
