<?xml version="1.0" encoding="UTF-8" standalone="no"?>
<svg
   xmlns:dc="http://purl.org/dc/elements/1.1/"
   xmlns:cc="http://creativecommons.org/ns#"
   xmlns:rdf="http://www.w3.org/1999/02/22-rdf-syntax-ns#"
   xmlns:svg="http://www.w3.org/2000/svg"
   xmlns="http://www.w3.org/2000/svg"
   xmlns:sodipodi="http://sodipodi.sourceforge.net/DTD/sodipodi-0.dtd"
   xmlns:inkscape="http://www.inkscape.org/namespaces/inkscape"
   inkscape:version="1.0 (4035a4fb49, 2020-05-01)"
   sodipodi:docname="facebook.svg"
   xml:space="preserve"
   viewBox="0 0 51.969001 96.123"
   height="96.123001"
   width="51.969002"
   y="0px"
   x="0px"
   id="Capa_1"
   version="1.1"><metadata
   id="metadata2121"><rdf:RDF><cc:Work
       rdf:about=""><dc:format>image/svg+xml</dc:format><dc:type
         rdf:resource="http://purl.org/dc/dcmitype/StillImage" /><dc:title></dc:title></cc:Work></rdf:RDF></metadata><defs
   id="defs2119" /><sodipodi:namedview
   inkscape:current-layer="Capa_1"
   inkscape:window-maximized="1"
   inkscape:window-y="-8"
   inkscape:window-x="-8"
   inkscape:cy="48.061501"
   inkscape:cx="25.985"
   inkscape:zoom="8.8428367"
   fit-margin-bottom="0"
   fit-margin-right="0"
   fit-margin-left="0"
   fit-margin-top="0"
   showgrid="false"
   id="namedview2117"
   inkscape:window-height="1017"
   inkscape:window-width="1920"
   inkscape:pageshadow="2"
   inkscape:pageopacity="0"
   guidetolerance="10"
   gridtolerance="10"
   objecttolerance="10"
   borderopacity="1"
   bordercolor="#666666"
   pagecolor="#ffffff" />
<g
   transform="translate(-22.077)"
   style="fill:#ffffff;fill-opacity:1"
   id="g2084">
	<path
   style="fill:#ffffff;fill-opacity:1"
   id="path2082"
   d="M 72.089,0.02 59.624,0 C 45.62,0 36.57,9.285 36.57,23.656 V 34.563 H 24.037 c -1.083,0 -1.96,0.878 -1.96,1.961 v 15.803 c 0,1.083 0.878,1.96 1.96,1.96 H 36.57 v 39.876 c 0,1.083 0.877,1.96 1.96,1.96 h 16.352 c 1.083,0 1.96,-0.878 1.96,-1.96 V 54.287 h 14.654 c 1.083,0 1.96,-0.877 1.96,-1.96 l 0.006,-15.803 c 0,-0.52 -0.207,-1.018 -0.574,-1.386 -0.367,-0.368 -0.867,-0.575 -1.387,-0.575 H 56.842 v -9.246 c 0,-4.444 1.059,-6.7 6.848,-6.7 l 8.397,-0.003 c 1.082,0 1.959,-0.878 1.959,-1.96 V 1.98 c 0,-1.081 -0.876,-1.958 -1.957,-1.96 z" />
</g>
<g
   transform="translate(-22.077)"
   id="g2086">
</g>
<g
   transform="translate(-22.077)"
   id="g2088">
</g>
<g
   transform="translate(-22.077)"
   id="g2090">
</g>
<g
   transform="translate(-22.077)"
   id="g2092">
</g>
<g
   transform="translate(-22.077)"
   id="g2094">
</g>
<g
   transform="translate(-22.077)"
   id="g2096">
</g>
<g
   transform="translate(-22.077)"
   id="g2098">
</g>
<g
   transform="translate(-22.077)"
   id="g2100">
</g>
<g
   transform="translate(-22.077)"
   id="g2102">
</g>
<g
   transform="translate(-22.077)"
   id="g2104">
</g>
<g
   transform="translate(-22.077)"
   id="g2106">
</g>
<g
   transform="translate(-22.077)"
   id="g2108">
</g>
<g
   transform="translate(-22.077)"
   id="g2110">
</g>
<g
   transform="translate(-22.077)"
   id="g2112">
</g>
<g
   transform="translate(-22.077)"
   id="g2114">
</g>
</svg>
