<?xml version="1.0" encoding="UTF-8" standalone="no"?>
<svg
   xmlns:dc="http://purl.org/dc/elements/1.1/"
   xmlns:cc="http://creativecommons.org/ns#"
   xmlns:rdf="http://www.w3.org/1999/02/22-rdf-syntax-ns#"
   xmlns:svg="http://www.w3.org/2000/svg"
   xmlns="http://www.w3.org/2000/svg"
   xmlns:sodipodi="http://sodipodi.sourceforge.net/DTD/sodipodi-0.dtd"
   xmlns:inkscape="http://www.inkscape.org/namespaces/inkscape"
   inkscape:version="1.0 (4035a4fb49, 2020-05-01)"
   sodipodi:docname="instagram-sketched.svg"
   id="svg1472"
   version="1.1"
   width="510.90094pt"
   viewBox="0 0 510.90094 511.89841"
   height="510.99841pt">
  <metadata
     id="metadata1478">
    <rdf:RDF>
      <cc:Work
         rdf:about="">
        <dc:format>image/svg+xml</dc:format>
        <dc:type
           rdf:resource="http://purl.org/dc/dcmitype/StillImage" />
        <dc:title></dc:title>
      </cc:Work>
    </rdf:RDF>
  </metadata>
  <defs
     id="defs1476" />
  <sodipodi:namedview
     inkscape:current-layer="svg1472"
     inkscape:window-maximized="1"
     inkscape:window-y="-8"
     inkscape:window-x="-8"
     inkscape:cy="340.66667"
     inkscape:cx="339.46982"
     inkscape:zoom="1.2475538"
     fit-margin-bottom="0"
     fit-margin-right="0"
     fit-margin-left="0"
     fit-margin-top="0"
     showgrid="false"
     id="namedview1474"
     inkscape:window-height="1017"
     inkscape:window-width="1920"
     inkscape:pageshadow="2"
     inkscape:pageopacity="0"
     guidetolerance="10"
     gridtolerance="10"
     objecttolerance="10"
     borderopacity="1"
     bordercolor="#666666"
     pagecolor="#ffffff" />
  <path
     style="fill:#ffffff;fill-opacity:1"
     id="path1466"
     d="M 510.05,150.5 C 508.85078,123.30078 504.45234,104.60156 498.15156,88.398438 491.65156,71.199219 481.65156,55.800781 468.55,43 455.74922,30 440.24922,19.898438 423.24922,13.5 406.95234,7.199219 388.35078,2.800781 361.15156,1.601562 333.74922,0.300781 325.05,0 255.55,0 186.05,0 177.35078,0.300781 150.05,1.5 122.85078,2.699219 104.15156,7.101562 87.952343,13.398438 70.749219,19.898438 55.350781,29.898438 42.55,43 29.55,55.800781 19.452343,71.300781 13.05,88.300781 6.749219,104.60156 2.350781,123.19922 1.151562,150.39844 -0.149219,177.80078 -0.45,186.5 -0.45,256 c 0,69.5 0.300781,78.19922 1.5,105.5 1.199219,27.19922 5.601562,45.89844 11.902343,62.10156 C 19.452343,440.80078 29.55,456.19922 42.55,469 c 12.800781,13 28.300781,23.10156 45.300781,29.5 16.300779,6.30078 34.898439,10.69922 62.101559,11.89844 27.29688,1.20312 36,1.5 105.5,1.5 69.5,0 78.19922,-0.29688 105.5,-1.5 27.19922,-1.19922 45.89844,-5.59766 62.09766,-11.89844 34.40234,-13.30078 61.60156,-40.5 74.90234,-74.89844 6.29688,-16.30078 10.69922,-34.90234 11.89844,-62.10156 1.19922,-27.30078 1.5,-36 1.5,-105.5 0,-69.5 -0.10156,-78.19922 -1.30078,-105.5 z m -46.09766,209 c -1.10156,25 -5.30078,38.5 -8.80078,47.5 -8.60156,22.30078 -26.30078,40 -48.60156,48.60156 -9,3.5 -22.59766,7.69922 -47.5,8.79688 -27,1.20312 -35.09766,1.5 -103.39844,1.5 -68.30078,0 -76.5,-0.29688 -103.40234,-1.5 -25,-1.09766 -38.5,-5.29688 -47.5,-8.79688 C 93.651562,451.5 83.55,445 75.350781,436.5 c -8.5,-8.30078 -15,-18.30078 -19.101562,-29.39844 -3.5,-9 -7.699219,-22.60156 -8.796876,-47.5 -1.203124,-27 -1.5,-35.10156 -1.5,-103.40234 0,-68.30078 0.296876,-76.5 1.5,-103.39844 1.097657,-25 5.296876,-38.5 8.796876,-47.5 4.101562,-11.101561 10.601562,-21.199218 19.203124,-29.402342 8.296876,-8.5 18.296876,-15 29.398437,-19.097657 9,-3.5 22.60156,-7.699219 47.5,-8.800781 27,-1.199219 35.10156,-1.5 103.39844,-1.5 68.40234,0 76.5,0.300781 103.40234,1.5 25,1.101562 38.5,5.300781 47.5,8.800781 11.09766,4.097657 21.19922,10.597657 29.39844,19.097657 8.5,8.300781 15,18.300781 19.10156,29.402342 3.5,9 7.69922,22.59766 8.80078,47.5 1.19922,27 1.5,35.09766 1.5,103.39844 0,68.30078 -0.30078,76.30078 -1.5,103.30078 z m 0,0" />
  <path
     style="fill:#ffffff;fill-opacity:1"
     id="path1468"
     d="m 255.55,124.5 c -72.59766,0 -131.5,58.89844 -131.5,131.5 0,72.60156 58.90234,131.5 131.5,131.5 72.60156,0 131.5,-58.89844 131.5,-131.5 0,-72.60156 -58.89844,-131.5 -131.5,-131.5 z m 0,216.80078 c -47.09766,0 -85.30078,-38.19922 -85.30078,-85.30078 0,-47.10156 38.20312,-85.30078 85.30078,-85.30078 47.10156,0 85.30078,38.19922 85.30078,85.30078 0,47.10156 -38.19922,85.30078 -85.30078,85.30078 z m 0,0" />
  <path
     style="fill:#ffffff;fill-opacity:1"
     id="path1470"
     d="M 422.95234,119.30078 C 422.95234,136.25391 409.20625,150 392.24922,150 375.29609,150 361.55,136.25391 361.55,119.30078 c 0,-16.95703 13.74609,-30.699218 30.69922,-30.699218 16.95703,0 30.70312,13.742188 30.70312,30.699218 z m 0,0" />
</svg>
