<?xml version="1.0" encoding="UTF-8" standalone="no"?>
<svg
   xmlns:dc="http://purl.org/dc/elements/1.1/"
   xmlns:cc="http://creativecommons.org/ns#"
   xmlns:rdf="http://www.w3.org/1999/02/22-rdf-syntax-ns#"
   xmlns:svg="http://www.w3.org/2000/svg"
   xmlns="http://www.w3.org/2000/svg"
   xmlns:sodipodi="http://sodipodi.sourceforge.net/DTD/sodipodi-0.dtd"
   xmlns:inkscape="http://www.inkscape.org/namespaces/inkscape"
   version="1.1"
   id="Capa_1"
   x="0px"
   y="0px"
   width="257.56949"
   height="451.84698"
   viewBox="0 0 257.56948 451.847"
   xml:space="preserve"
   sodipodi:docname="rightarrow.svg"
   inkscape:version="1.0 (4035a4fb49, 2020-05-01)"><metadata
   id="metadata41"><rdf:RDF><cc:Work
       rdf:about=""><dc:format>image/svg+xml</dc:format><dc:type
         rdf:resource="http://purl.org/dc/dcmitype/StillImage" /><dc:title /></cc:Work></rdf:RDF></metadata><defs
   id="defs39" /><sodipodi:namedview
   inkscape:document-rotation="0"
   pagecolor="#ffffff"
   bordercolor="#666666"
   borderopacity="1"
   objecttolerance="10"
   gridtolerance="10"
   guidetolerance="10"
   inkscape:pageopacity="0"
   inkscape:pageshadow="2"
   inkscape:window-width="1920"
   inkscape:window-height="1017"
   id="namedview37"
   showgrid="false"
   inkscape:zoom="1.8811678"
   inkscape:cx="128.7845"
   inkscape:cy="225.92374"
   inkscape:window-x="-8"
   inkscape:window-y="-8"
   inkscape:window-maximized="1"
   inkscape:current-layer="Capa_1" />
<g
   style="fill:#e0e0e0;fill-opacity:1"
   id="g4"
   transform="translate(-97.1385,2.5e-4)">
	<path
   style="fill:#e0e0e0;fill-opacity:1"
   d="M 345.441,248.292 151.154,442.573 c -12.359,12.365 -32.397,12.365 -44.75,0 -12.354,-12.354 -12.354,-32.391 0,-44.744 L 278.318,225.92 106.409,54.017 c -12.354,-12.359 -12.354,-32.394 0,-44.748 12.354,-12.359 32.391,-12.359 44.75,0 l 194.287,194.284 c 6.177,6.18 9.262,14.271 9.262,22.366 0,8.099 -3.091,16.196 -9.267,22.373 z"
   id="path2" />
</g>
<g
   id="g6"
   transform="translate(-97.1385,2.5e-4)">
</g>
<g
   id="g8"
   transform="translate(-97.1385,2.5e-4)">
</g>
<g
   id="g10"
   transform="translate(-97.1385,2.5e-4)">
</g>
<g
   id="g12"
   transform="translate(-97.1385,2.5e-4)">
</g>
<g
   id="g14"
   transform="translate(-97.1385,2.5e-4)">
</g>
<g
   id="g16"
   transform="translate(-97.1385,2.5e-4)">
</g>
<g
   id="g18"
   transform="translate(-97.1385,2.5e-4)">
</g>
<g
   id="g20"
   transform="translate(-97.1385,2.5e-4)">
</g>
<g
   id="g22"
   transform="translate(-97.1385,2.5e-4)">
</g>
<g
   id="g24"
   transform="translate(-97.1385,2.5e-4)">
</g>
<g
   id="g26"
   transform="translate(-97.1385,2.5e-4)">
</g>
<g
   id="g28"
   transform="translate(-97.1385,2.5e-4)">
</g>
<g
   id="g30"
   transform="translate(-97.1385,2.5e-4)">
</g>
<g
   id="g32"
   transform="translate(-97.1385,2.5e-4)">
</g>
<g
   id="g34"
   transform="translate(-97.1385,2.5e-4)">
</g>
</svg>
