<?xml version="1.0" encoding="UTF-8" standalone="no"?>
<svg
   xmlns:dc="http://purl.org/dc/elements/1.1/"
   xmlns:cc="http://creativecommons.org/ns#"
   xmlns:rdf="http://www.w3.org/1999/02/22-rdf-syntax-ns#"
   xmlns:svg="http://www.w3.org/2000/svg"
   xmlns="http://www.w3.org/2000/svg"
   xmlns:sodipodi="http://sodipodi.sourceforge.net/DTD/sodipodi-0.dtd"
   xmlns:inkscape="http://www.inkscape.org/namespaces/inkscape"
   inkscape:version="1.0 (4035a4fb49, 2020-05-01)"
   sodipodi:docname="shopping-bag.svg"
   id="svg4"
   version="1.1"
   width="512pt"
   viewBox="-35 0 512 512.00102"
   height="512pt">
  <metadata
     id="metadata10">
    <rdf:RDF>
      <cc:Work
         rdf:about="">
        <dc:format>image/svg+xml</dc:format>
        <dc:type
           rdf:resource="http://purl.org/dc/dcmitype/StillImage" />
      </cc:Work>
    </rdf:RDF>
  </metadata>
  <defs
     id="defs8" />
  <sodipodi:namedview
     inkscape:current-layer="svg4"
     inkscape:window-maximized="1"
     inkscape:window-y="-8"
     inkscape:window-x="-8"
     inkscape:cy="437.7098"
     inkscape:cx="341.33333"
     inkscape:zoom="1.2451172"
     showgrid="false"
     id="namedview6"
     inkscape:window-height="1017"
     inkscape:window-width="1920"
     inkscape:pageshadow="2"
     inkscape:pageopacity="0"
     guidetolerance="10"
     gridtolerance="10"
     objecttolerance="10"
     borderopacity="1"
     bordercolor="#666666"
     pagecolor="#ffffff" />
  <path
     id="path2"
     d="m443.054688 495.171875-38.914063-370.574219c-.816406-7.757812-7.355469-13.648437-15.15625-13.648437h-73.140625v-16.675781c0-51.980469-42.292969-94.273438-94.273438-94.273438-51.984374 0-94.277343 42.292969-94.277343 94.273438v16.675781h-73.140625c-7.800782 0-14.339844 5.890625-15.15625 13.648437l-38.9140628 370.574219c-.4492192 4.292969.9453128 8.578125 3.8320308 11.789063 2.890626 3.207031 7.007813 5.039062 11.324219 5.039062h412.65625c4.320313 0 8.4375-1.832031 11.324219-5.039062 2.894531-3.210938 4.285156-7.496094 3.835938-11.789063zm-285.285157-400.898437c0-35.175782 28.621094-63.796876 63.800781-63.796876 35.175782 0 63.796876 28.621094 63.796876 63.796876v16.675781h-127.597657zm-125.609375 387.25 35.714844-340.097657h59.417969v33.582031c0 8.414063 6.824219 15.238282 15.238281 15.238282s15.238281-6.824219 15.238281-15.238282v-33.582031h127.597657v33.582031c0 8.414063 6.824218 15.238282 15.238281 15.238282 8.414062 0 15.238281-6.824219 15.238281-15.238282v-33.582031h59.417969l35.714843 340.097657zm0 0" />
  <path
     transform="matrix(0.75000147,0,0,0.75000147,-35.00051,0)"
     id="path835"
     d="m 63.565716,681.80671 c -9.593169,-1.89563 -16.180618,-9.79824 -16.180618,-19.41103 0,-5.44517 51.100871,-492.92076 52.243264,-498.37341 1.169908,-5.58397 4.917968,-10.38364 10.307048,-13.19892 l 4.2935,-2.24296 h 51.21692 51.21692 l 0.38261,-19.07451 c 0.43215,-21.54509 1.74123,-30.221852 6.71578,-44.513374 6.47956,-18.615301 15.45005,-32.770184 29.97687,-47.301642 26.70518,-26.713708 59.63498,-39.1371387 97.3872,-36.74128165 46.97007,2.98084575 90.16676,34.73071265 107.4182,78.95311365 6.51273,16.694758 8.84302,30.786414 8.8668,53.618874 l 0.0157,15.05882 h 51.02501 c 55.19889,0 53.52593,-0.12242 59.38372,4.34553 1.36026,1.03753 3.47897,3.73432 4.70823,5.99287 2.22988,4.09702 2.29487,4.67637 28.28362,252.08089 14.32674,136.38595 26.04355,249.7815 26.03736,251.99012 -0.0206,7.35131 -4.70698,14.21596 -12.01402,17.59823 l -3.62313,1.67707 -277.08236,0.11624 C 191.74902,682.44527 65.48865,682.18669 63.565716,681.80671 Z M 594.92834,639.89961 C 594.70474,638.464 583.91262,536.18447 570.94586,412.61176 L 547.36992,187.93412 H 507.3979 467.42588 l -0.005,23.89333 c -0.002,13.98114 -0.34914,25.13436 -0.83528,26.88481 -1.31247,4.72579 -5.50034,9.60325 -10.40967,12.12377 -6.0794,3.12125 -13.18649,2.85593 -18.96407,-0.70794 -4.41004,-2.72032 -8.61197,-8.86814 -9.4255,-13.7904 -0.2751,-1.66448 -0.50416,-13.2362 -0.50902,-25.71494 l -0.008,-22.68863 h -85.13255 -85.13255 v 21.97665 c 0,12.08716 -0.36751,23.9234 -0.81668,26.30275 -1.75308,9.28634 -8.63436,15.89251 -17.3032,16.6114 -8.87019,0.73558 -16.4738,-3.58454 -20.13057,-11.43751 -1.85589,-3.98556 -1.89086,-4.5153 -1.89856,-28.75682 l -0.008,-24.69647 H 176.6902 c -37.26794,0 -40.15687,0.0983 -40.15687,1.36609 0,0.75134 -10.66164,102.86924 -23.69255,226.92865 -13.030898,124.05942 -23.692545,225.7242 -23.692545,225.92176 0,0.19755 113.891995,0.35918 253.093315,0.35918 H 595.33487 Z M 427.26902,132.60637 c 0,-21.86037 -1.79646,-30.92716 -9.00846,-45.465978 -8.19298,-16.516388 -23.16152,-31.012076 -40.2018,-38.931856 -22.59684,-10.502284 -49.45361,-10.511194 -71.84458,-0.02383 -23.04817,10.795181 -39.90754,30.873832 -46.87148,55.821564 -1.56146,5.5938 -1.83837,8.89302 -2.14019,25.49961 l -0.34667,19.07451 h 85.20659 85.20659 z"
     style="fill:#e0e0e0;stroke:#ffffff;stroke-width:1.21419;stroke-linecap:round;fill-opacity:1" />
  <path
     transform="matrix(0.75000147,0,0,0.75000147,-35.00051,0)"
     id="path837"
     d="m 58.713157,678.94405 c -2.49059,-1.24111 -5.171733,-3.39298 -6.483154,-5.20335 -4.411891,-6.09044 -4.418364,-6.76799 -0.439641,-46.01473 7.163519,-70.66203 36.611752,-351.81142 45.01328,-429.75264 2.988438,-27.72384 3.948438,-34.4242 5.389958,-37.61949 1.89019,-4.18982 4.65605,-6.92219 9.51773,-9.40243 2.95352,-1.50677 5.07801,-1.56788 54.50608,-1.56788 h 51.43279 l 0.0113,-8.23216 c 0.0184,-13.36278 1.46314,-34.40572 2.79778,-40.75034 5.77959,-27.475231 21.72398,-53.028281 44.53925,-71.380211 16.7314,-13.458229 33.83229,-21.3907974 55.05165,-25.5367367 11.04677,-2.1583713 35.03595,-1.9688056 45.83074,0.3621606 12.17832,2.6297169 19.75666,5.2952645 31.27043,10.9988261 35.29899,17.486003 60.5186,51.119534 67.1391,89.538451 1.08316,6.28555 1.75416,14.97991 2.08878,27.06462 l 0.49298,17.80421 51.47683,0.26638 51.47682,0.26637 4.01035,2.00784 c 6.49827,3.25346 8.33276,6.69825 10.10992,18.9842 2.2092,15.27281 14.11301,126.7904 37.23785,348.85266 15.69807,150.74473 15.108,144.32927 13.67244,148.65134 -1.39171,4.19004 -5.70494,8.95525 -10.18444,11.25167 -2.91175,1.49271 -9.35691,1.52758 -282.34584,1.52758 H 62.960089 Z m 537.523663,-37.0366 c -0.4068,-1.6631 -47.69407,-451.06533 -47.69407,-453.2683 0,-1.45571 -1.42132,-1.50817 -40.85809,-1.50817 h -40.85808 l -0.34451,25.55935 -0.34452,25.55936 -2.22052,3.78901 c -2.83148,4.83158 -7.4716,8.18623 -13.04978,9.43457 -5.8329,1.30535 -11.58297,-0.39589 -15.91158,-4.70766 -6.34931,-6.32462 -6.36004,-6.37963 -6.73287,-34.53659 l -0.33234,-25.09804 h -85.73494 -85.73493 l -0.42464,24.2949 c -0.4522,25.8723 -0.77648,28.15578 -4.76858,33.57951 -7.6907,10.44873 -24.98159,8.47426 -31.40853,-3.5866 -1.67614,-3.14547 -1.76444,-4.39927 -2.02877,-28.80957 l -0.27636,-25.52097 -40.42377,0.22215 c -22.23307,0.12218 -40.65293,0.45154 -40.93302,0.73191 -0.28009,0.28037 -4.10789,34.97589 -8.50623,77.10117 -4.39833,42.12528 -15.04141,143.82607 -23.65128,226.00176 -8.609873,82.17569 -15.654312,150.03075 -15.654312,150.78902 0,1.29991 14.518892,1.37868 254.117752,1.37868 241.61245,0 254.10084,-0.0692 253.77397,-1.40549 z M 427.84505,130.30902 c -0.45616,-21.14937 -1.15291,-25.63118 -5.72987,-36.857591 -8.06949,-19.792928 -22.55407,-35.350826 -41.82969,-44.929298 -5.10076,-2.534682 -12.22882,-5.284827 -16.86588,-6.507193 -7.12186,-1.877379 -9.53207,-2.117134 -21.28314,-2.117134 -11.79429,0 -14.13509,0.234735 -21.28314,2.13427 -24.80943,6.592898 -45.39411,23.380216 -56.2125,45.842675 -7.08039,14.701171 -8.4228,22.094931 -8.43346,46.449961 l -0.007,15.05882 h 86.02784 86.02784 z"
     style="fill:#e0e0e0;fill-opacity:1;stroke:#e0e0e0;stroke-width:1.6;stroke-linecap:round;stroke-miterlimit:4;stroke-dasharray:none;stroke-opacity:1" />
</svg>
