<?xml version="1.0" encoding="UTF-8" standalone="no"?>
<svg
   xmlns:dc="http://purl.org/dc/elements/1.1/"
   xmlns:cc="http://creativecommons.org/ns#"
   xmlns:rdf="http://www.w3.org/1999/02/22-rdf-syntax-ns#"
   xmlns:svg="http://www.w3.org/2000/svg"
   xmlns="http://www.w3.org/2000/svg"
   xmlns:sodipodi="http://sodipodi.sourceforge.net/DTD/sodipodi-0.dtd"
   xmlns:inkscape="http://www.inkscape.org/namespaces/inkscape"
   inkscape:version="1.0 (4035a4fb49, 2020-05-01)"
   sodipodi:docname="spotify.svg"
   xml:space="preserve"
   viewBox="0 0 98.372 98.367995"
   height="98.367996"
   width="98.372002"
   y="0px"
   x="0px"
   id="Capa_1"
   version="1.1"><metadata
   id="metadata42"><rdf:RDF><cc:Work
       rdf:about=""><dc:format>image/svg+xml</dc:format><dc:type
         rdf:resource="http://purl.org/dc/dcmitype/StillImage" /></cc:Work></rdf:RDF></metadata><defs
   id="defs40" /><sodipodi:namedview
   inkscape:current-layer="layer2"
   inkscape:window-maximized="1"
   inkscape:window-y="-8"
   inkscape:window-x="-8"
   inkscape:cy="49.184001"
   inkscape:cx="49.186001"
   inkscape:zoom="8.64067"
   showgrid="false"
   id="namedview38"
   inkscape:window-height="1017"
   inkscape:window-width="1920"
   inkscape:pageshadow="2"
   inkscape:pageopacity="0"
   guidetolerance="10"
   gridtolerance="10"
   objecttolerance="10"
   borderopacity="1"
   bordercolor="#666666"
   pagecolor="#ffffff" />

<g
   transform="translate(0,-0.002)"
   id="g7">
</g>
<g
   transform="translate(0,-0.002)"
   id="g9">
</g>
<g
   transform="translate(0,-0.002)"
   id="g11">
</g>
<g
   transform="translate(0,-0.002)"
   id="g13">
</g>
<g
   transform="translate(0,-0.002)"
   id="g15">
</g>
<g
   transform="translate(0,-0.002)"
   id="g17">
</g>
<g
   transform="translate(0,-0.002)"
   id="g19">
</g>
<g
   transform="translate(0,-0.002)"
   id="g21">
</g>
<g
   transform="translate(0,-0.002)"
   id="g23">
</g>
<g
   transform="translate(0,-0.002)"
   id="g25">
</g>
<g
   transform="translate(0,-0.002)"
   id="g27">
</g>
<g
   transform="translate(0,-0.002)"
   id="g29">
</g>
<g
   transform="translate(0,-0.002)"
   id="g31">
</g>
<g
   transform="translate(0,-0.002)"
   id="g33">
</g>
<g
   transform="translate(0,-0.002)"
   id="g35">
</g>
<g
   transform="translate(0,-0.002)"
   inkscape:label="Layer 1"
   id="layer1"
   inkscape:groupmode="layer"><rect
     ry="13.77208"
     y="23.956476"
     x="9.8372002"
     height="57.402958"
     width="76.845894"
     id="rect868"
     style="fill:#000000;fill-opacity:1;stroke:none;stroke-width:1.6;stroke-linecap:round;stroke-miterlimit:4;stroke-dasharray:none" /></g><g
   transform="translate(0,-0.002)"
   inkscape:label="Layer 2"
   id="layer2"
   inkscape:groupmode="layer"><g
     id="g5"
     style="fill:#ffffff;fill-opacity:1"><g
       id="Layer_1_1_"
       style="fill:#ffffff;fill-opacity:1"><path
         d="M 49.186,0.002 C 22.022,0.002 0,22.021 0,49.186 0,76.35 22.022,98.37 49.186,98.37 76.35,98.37 98.372,76.349 98.372,49.185 98.372,22.021 76.35,0.002 49.186,0.002 Z m 18.93,72.545 c -0.796,0 -1.339,-0.275 -2.082,-0.729 -7.129,-4.313 -16.019,-6.58 -25.449,-6.58 -5.264,0 -10.561,0.677 -15.515,1.707 -0.805,0.175 -1.817,0.484 -2.425,0.484 -1.867,0 -3.111,-1.482 -3.111,-3.092 0,-2.064 1.19,-3.096 2.675,-3.379 6.075,-1.385 12.125,-2.176 18.409,-2.176 10.762,0 20.354,2.471 28.608,7.418 1.228,0.717 1.947,1.449 1.947,3.27 0.001,1.775 -1.441,3.077 -3.057,3.077 z m 5.359,-13.018 c -1.067,0 -1.738,-0.432 -2.465,-0.854 -8,-4.748 -19.09,-7.902 -31.232,-7.902 -6.228,0 -11.604,0.873 -16.053,2.058 -0.959,0.265 -1.496,0.549 -2.394,0.549 -2.114,0 -3.842,-1.726 -3.842,-3.856 0,-2.091 1.015,-3.529 3.059,-4.105 5.529,-1.52 11.177,-2.689 19.394,-2.689 12.875,0 25.33,3.206 35.121,9.066 1.642,0.939 2.246,2.137 2.246,3.887 0,2.126 -1.696,3.846 -3.834,3.846 z m 6.102,-15.14 c -1,0 -1.595,-0.244 -2.533,-0.758 -8.901,-5.338 -22.719,-8.277 -36.079,-8.277 -6.67,0 -13.443,0.679 -19.648,2.362 -0.715,0.179 -1.616,0.537 -2.521,0.537 -2.624,0 -4.638,-2.076 -4.638,-4.699 0,-2.674 1.656,-4.174 3.442,-4.701 7.012,-2.065 14.838,-3.027 23.346,-3.027 14.443,0 29.639,2.971 40.738,9.488 1.496,0.849 2.533,2.126 2.533,4.468 -0.002,2.68 -2.156,4.607 -4.64,4.607 z"
         id="path2"
         style="fill:#ffffff;fill-opacity:1" /></g></g></g></svg>
