<?xml version="1.0" encoding="UTF-8" standalone="no"?>
<svg
   xmlns:dc="http://purl.org/dc/elements/1.1/"
   xmlns:cc="http://creativecommons.org/ns#"
   xmlns:rdf="http://www.w3.org/1999/02/22-rdf-syntax-ns#"
   xmlns:svg="http://www.w3.org/2000/svg"
   xmlns="http://www.w3.org/2000/svg"
   xmlns:sodipodi="http://sodipodi.sourceforge.net/DTD/sodipodi-0.dtd"
   xmlns:inkscape="http://www.inkscape.org/namespaces/inkscape"
   inkscape:version="1.0 (4035a4fb49, 2020-05-01)"
   sodipodi:docname="twitter.svg"
   id="svg883"
   version="1.1"
   width="638.44019pt"
   viewBox="-21 -81 638.75391 518.86615"
   height="518.86615pt">
  <metadata
     id="metadata889">
    <rdf:RDF>
      <cc:Work
         rdf:about="">
        <dc:format>image/svg+xml</dc:format>
        <dc:type
           rdf:resource="http://purl.org/dc/dcmitype/StillImage" />
        <dc:title></dc:title>
      </cc:Work>
    </rdf:RDF>
  </metadata>
  <defs
     id="defs887" />
  <sodipodi:namedview
     inkscape:current-layer="svg883"
     inkscape:window-maximized="1"
     inkscape:window-y="-8"
     inkscape:window-x="-8"
     inkscape:cy="350.92652"
     inkscape:cx="425.90443"
     inkscape:zoom="0.93612335"
     fit-margin-bottom="0"
     fit-margin-right="0"
     fit-margin-left="0"
     fit-margin-top="0"
     showgrid="false"
     id="namedview885"
     inkscape:window-height="1017"
     inkscape:window-width="1920"
     inkscape:pageshadow="2"
     inkscape:pageopacity="0"
     guidetolerance="10"
     gridtolerance="10"
     objecttolerance="10"
     borderopacity="1"
     bordercolor="#666666"
     pagecolor="#ff3133" />
  <path
     style="fill:#ffffff;fill-opacity:1"
     id="path881"
     d="m 179.88281,437.94987 c 241.05078,0 372.8711,-199.70313 372.8711,-372.871101 0,-5.67187 -0.11719,-11.32031 -0.3711,-16.9375 25.58594,-18.5 47.82422,-41.585932 65.3711,-67.863276 C 594.27344,-9.280601 569,-2.26107 542.49609,0.914711 c 27.05469,-16.230468 47.82813,-41.894531 57.625,-72.488281 -25.32031,15.011719 -53.36328,25.917969 -83.21484,31.808594 -23.91406,-25.472656 -57.96484,-41.402344 -95.66406,-41.402344 -72.36719,0 -131.0586,58.6875 -131.0586,131.031249 0,10.28906 1.15235,20.28906 3.39844,29.88281 C 184.66406,74.266269 88.078129,22.121743 23.449219,-57.175132 c -11.25,19.363281 -17.7421882,41.863281 -17.7421882,65.871093 0,45.460938 23.1367192,85.605468 58.3164072,109.082029 -21.5,-0.66015 -41.695313,-6.5625 -59.3515632,-16.38672 -0.01953,0.55079 -0.01953,1.08594 -0.01953,1.67188 0,63.46875 45.1718752,116.46094 105.1445352,128.46875 -11.01563,2.99609 -22.60547,4.60937 -34.558598,4.60937 -8.429687,0 -16.648437,-0.82812 -24.632812,-2.36328 16.683594,52.07032 65.06641,89.96094 122.42578,91.02344 -44.85547,35.15625 -101.359374,56.09766 -162.76953,56.09766 -10.5625002,0 -21.003906,-0.60547 -31.261719,-1.81641 58,37.17578 126.871099,58.87109 200.886719,58.87109" />
</svg>
