<?xml version="1.0" encoding="UTF-8" standalone="no"?>
<svg
   xmlns:dc="http://purl.org/dc/elements/1.1/"
   xmlns:cc="http://creativecommons.org/ns#"
   xmlns:rdf="http://www.w3.org/1999/02/22-rdf-syntax-ns#"
   xmlns:svg="http://www.w3.org/2000/svg"
   xmlns="http://www.w3.org/2000/svg"
   xmlns:sodipodi="http://sodipodi.sourceforge.net/DTD/sodipodi-0.dtd"
   xmlns:inkscape="http://www.inkscape.org/namespaces/inkscape"
   height="358.48288pt"
   viewBox="0 -77 512.00219 358.48288"
   width="512.00006pt"
   version="1.1"
   id="svg6"
   sodipodi:docname="youtube.svg"
   inkscape:version="1.0 (4035a4fb49, 2020-05-01)">
  <metadata
     id="metadata12">
    <rdf:RDF>
      <cc:Work
         rdf:about="">
        <dc:format>image/svg+xml</dc:format>
        <dc:type
           rdf:resource="http://purl.org/dc/dcmitype/StillImage" />
        <dc:title />
      </cc:Work>
    </rdf:RDF>
  </metadata>
  <defs
     id="defs10" />
  <sodipodi:namedview
     inkscape:document-rotation="0"
     pagecolor="#323232"
     bordercolor="#666666"
     borderopacity="1"
     objecttolerance="10"
     gridtolerance="10"
     guidetolerance="10"
     inkscape:pageopacity="1"
     inkscape:pageshadow="2"
     inkscape:window-width="1920"
     inkscape:window-height="1017"
     id="namedview8"
     showgrid="false"
     fit-margin-top="0"
     fit-margin-left="0"
     fit-margin-right="0"
     fit-margin-bottom="0"
     inkscape:zoom="1.2451172"
     inkscape:cx="341.33333"
     inkscape:cy="206.54018"
     inkscape:window-x="-8"
     inkscape:window-y="-8"
     inkscape:window-maximized="1"
     inkscape:current-layer="svg6" />
  <path
     d="m 501.45312,-20.907315 c -5.90234,-21.933594 -23.19531,-39.222656 -45.125,-45.128906 -40.0664,-10.964844 -200.33203,-10.964844 -200.33203,-10.964844 0,0 -160.261715,0 -200.328121,10.546875 -21.507813,5.902344 -39.222657,23.617187 -45.125,45.546875 C 0,19.155185 0,102.24113 0,102.24113 c 0,0 0,83.50389 10.542969,123.14843 5.90625,21.92969 23.195312,39.22266 45.128906,45.12891 C 96.15625,281.48331 256,281.48331 256,281.48331 c 0,0 160.26172,0 200.32812,-10.54687 21.9336,-5.90234 39.22266,-23.19532 45.12891,-45.125 C 512,185.74502 512,102.663 512,102.663 c 0,0 0.42187,-83.507815 -10.54688,-123.570315 z m 0,0"
     fill="#f00"
     id="path2"
     style="fill:#ffffff;fill-opacity:1" />
  <path
     style="fill:#000000;fill-opacity:1"
     d="M 204.96875,178.99894 338.23828,102.24113 204.96875,25.483315 Z m 0,0"
     fill="#fff"
     id="path4" />
</svg>
